999
dxflib 3.17.0.0
  0
SECTION
  2
HEADER
  9
$ACADVER
  1
AC1015
  9
$HANDSEED
  5
FFFF
  9
$INSUNITS
 70
4
  9
$DIMEXE
 40
1.25
  9
$TEXTSTYLE
  7
Standard
  9
$LIMMIN
 10
0.0
 20
0.0
  0
ENDSEC
  0
SECTION
  2
TABLES
  0
TABLE
  2
VPORT
  5
8
100
AcDbSymbolTable
 70
1
  0
VPORT
  5
30
100
AcDbSymbolTableRecord
100
AcDbViewportTableRecord
  2
*Active
 70
0
 10
0.0
 20
0.0
 11
1.0
 21
1.0
 12
286.30555555555549
 22
148.5
 13
0.0
 23
0.0
 14
10.0
 24
10.0
 15
10.0
 25
10.0
 16
0.0
 26
0.0
 36
1.0
 17
0.0
 27
0.0
 37
0.0
 40
297.0
 41
1.92798353909465
 42
50.0
 43
0.0
 44
0.0
 50
0.0
 51
0.0
 71
0
 72
100
 73
1
 74
3
 75
1
 76
1
 77
0
 78
0
281
0
 65
1
110
0.0
120
0.0
130
0.0
111
1.0
121
0.0
131
0.0
112
0.0
122
1.0
132
0.0
 79
0
146
0.0
  0
ENDTAB
  0
TABLE
  2
LTYPE
  5
5
100
AcDbSymbolTable
 70
25
  0
LTYPE
  5
14
100
AcDbSymbolTableRecord
100
AcDbLinetypeTableRecord
  2
BYBLOCK
 70
0
  3

 72
65
 73
0
 40
0.0
  0
LTYPE
  5
15
100
AcDbSymbolTableRecord
100
AcDbLinetypeTableRecord
  2
BYLAYER
 70
0
  3

 72
65
 73
0
 40
0.0
  0
LTYPE
  5
16
100
AcDbSymbolTableRecord
100
AcDbLinetypeTableRecord
  2
CONTINUOUS
 70
0
  3
Solid line
 72
65
 73
0
 40
0.0
  0
LTYPE
  5
31
100
AcDbSymbolTableRecord
100
AcDbLinetypeTableRecord
  2
ACAD_ISO02W100
 70
0
  3

 72
65
 73
0
 40
0.0
  0
LTYPE
  5
32
100
AcDbSymbolTableRecord
100
AcDbLinetypeTableRecord
  2
ACAD_ISO03W100
 70
0
  3

 72
65
 73
0
 40
0.0
  0
LTYPE
  5
33
100
AcDbSymbolTableRecord
100
AcDbLinetypeTableRecord
  2
ACAD_ISO04W100
 70
0
  3

 72
65
 73
0
 40
0.0
  0
LTYPE
  5
34
100
AcDbSymbolTableRecord
100
AcDbLinetypeTableRecord
  2
ACAD_ISO05W100
 70
0
  3

 72
65
 73
0
 40
0.0
  0
LTYPE
  5
35
100
AcDbSymbolTableRecord
100
AcDbLinetypeTableRecord
  2
BORDER
 70
0
  3

 72
65
 73
0
 40
0.0
  0
LTYPE
  5
36
100
AcDbSymbolTableRecord
100
AcDbLinetypeTableRecord
  2
BORDER2
 70
0
  3

 72
65
 73
0
 40
0.0
  0
LTYPE
  5
37
100
AcDbSymbolTableRecord
100
AcDbLinetypeTableRecord
  2
BORDERX2
 70
0
  3

 72
65
 73
0
 40
0.0
  0
LTYPE
  5
38
100
AcDbSymbolTableRecord
100
AcDbLinetypeTableRecord
  2
CENTER
 70
0
  3

 72
65
 73
0
 40
0.0
  0
LTYPE
  5
39
100
AcDbSymbolTableRecord
100
AcDbLinetypeTableRecord
  2
CENTER2
 70
0
  3

 72
65
 73
0
 40
0.0
  0
LTYPE
  5
3A
100
AcDbSymbolTableRecord
100
AcDbLinetypeTableRecord
  2
CENTERX2
 70
0
  3

 72
65
 73
0
 40
0.0
  0
LTYPE
  5
3B
100
AcDbSymbolTableRecord
100
AcDbLinetypeTableRecord
  2
DASHDOT
 70
0
  3

 72
65
 73
0
 40
0.0
  0
LTYPE
  5
3C
100
AcDbSymbolTableRecord
100
AcDbLinetypeTableRecord
  2
DASHDOT2
 70
0
  3

 72
65
 73
0
 40
0.0
  0
LTYPE
  5
3D
100
AcDbSymbolTableRecord
100
AcDbLinetypeTableRecord
  2
DASHDOTX2
 70
0
  3

 72
65
 73
0
 40
0.0
  0
LTYPE
  5
3E
100
AcDbSymbolTableRecord
100
AcDbLinetypeTableRecord
  2
DASHED
 70
0
  3

 72
65
 73
0
 40
0.0
  0
LTYPE
  5
3F
100
AcDbSymbolTableRecord
100
AcDbLinetypeTableRecord
  2
DASHED2
 70
0
  3

 72
65
 73
0
 40
0.0
  0
LTYPE
  5
40
100
AcDbSymbolTableRecord
100
AcDbLinetypeTableRecord
  2
DASHEDX2
 70
0
  3

 72
65
 73
0
 40
0.0
  0
LTYPE
  5
41
100
AcDbSymbolTableRecord
100
AcDbLinetypeTableRecord
  2
DIVIDE
 70
0
  3

 72
65
 73
0
 40
0.0
  0
LTYPE
  5
42
100
AcDbSymbolTableRecord
100
AcDbLinetypeTableRecord
  2
DIVIDE2
 70
0
  3

 72
65
 73
0
 40
0.0
  0
LTYPE
  5
43
100
AcDbSymbolTableRecord
100
AcDbLinetypeTableRecord
  2
DIVIDEX2
 70
0
  3

 72
65
 73
0
 40
0.0
  0
LTYPE
  5
44
100
AcDbSymbolTableRecord
100
AcDbLinetypeTableRecord
  2
DOT
 70
0
  3

 72
65
 73
0
 40
0.0
  0
LTYPE
  5
45
100
AcDbSymbolTableRecord
100
AcDbLinetypeTableRecord
  2
DOT2
 70
0
  3

 72
65
 73
0
 40
0.0
  0
LTYPE
  5
46
100
AcDbSymbolTableRecord
100
AcDbLinetypeTableRecord
  2
DOTX2
 70
0
  3

 72
65
 73
0
 40
0.0
  0
ENDTAB
  0
TABLE
  2
LAYER
  5
2
100
AcDbSymbolTable
 70
1
  0
LAYER
  5
10
100
AcDbSymbolTableRecord
100
AcDbLayerTableRecord
  2
0
 70
0
 62
7
420
16777215
  6
CONTINUOUS
390
F
  0
ENDTAB
  0
TABLE
  2
STYLE
  5
3
100
AcDbSymbolTable
 70
1
  0
STYLE
  5
47
100
AcDbSymbolTableRecord
100
AcDbTextStyleTableRecord
  2
Standard
 70
0
 40
2.5
 41
1.0
 50
0.0
 71
0
 42
2.5
  3

  4

1001
ACAD
1000
txt
1071
0
  0
ENDTAB
  0
TABLE
  2
VIEW
  5
6
100
AcDbSymbolTable
 70
0
  0
ENDTAB
  0
TABLE
  2
UCS
  5
7
100
AcDbSymbolTable
 70
0
  0
ENDTAB
  0
TABLE
  2
APPID
  5
9
100
AcDbSymbolTable
 70
1
  0
APPID
  5
12
100
AcDbSymbolTableRecord
100
AcDbRegAppTableRecord
  2
ACAD
 70
0
 70
0
  0
ENDTAB
  0
TABLE
  2
DIMSTYLE
  5
A
100
AcDbSymbolTable
 70
1
100
AcDbDimStyleTable
 71
0
  0
DIMSTYLE
105
27
100
AcDbSymbolTableRecord
100
AcDbDimStyleTableRecord
  2
Standard
 41
1.0
 42
1.0
 43
3.75
 44
1.0
 70
0
 73
0
 74
0
 77
1
 78
8
140
1.0
141
2.5
143
0.03937007874016
147
1.0
171
3
172
1
271
2
272
2
274
3
278
44
283
0
284
8
340
47
  0
ENDTAB
  0
TABLE
  2
BLOCK_RECORD
  5
1
100
AcDbSymbolTable
 70
1
  0
BLOCK_RECORD
  5
1F
100
AcDbSymbolTableRecord
100
AcDbBlockTableRecord
  2
*Model_Space
340
22
  0
BLOCK_RECORD
  5
1B
100
AcDbSymbolTableRecord
100
AcDbBlockTableRecord
  2
*Paper_Space
340
1E
  0
BLOCK_RECORD
  5
23
100
AcDbSymbolTableRecord
100
AcDbBlockTableRecord
  2
*Paper_Space0
340
26
  0
BLOCK_RECORD
  5
48
100
AcDbSymbolTableRecord
100
AcDbBlockTableRecord
  2
myblock1
340
0
  0
BLOCK_RECORD
  5
49
100
AcDbSymbolTableRecord
100
AcDbBlockTableRecord
  2
myblock2
340
0
  0
ENDTAB
  0
ENDSEC
  0
SECTION
  2
BLOCKS
  0
BLOCK
  5
20
100
AcDbEntity
  8
0
100
AcDbBlockBegin
  2
*Model_Space
 70
0
 10
0.0
 20
0.0
 30
0.0
  3
*Model_Space
  1

  0
ENDBLK
  5
21
100
AcDbEntity
  8
0
100
AcDbBlockEnd
  0
BLOCK
  5
1C
100
AcDbEntity
 67
1
  8
0
100
AcDbBlockBegin
  2
*Paper_Space
 70
0
 10
0.0
 20
0.0
 30
0.0
  3
*Paper_Space
  1

  0
ENDBLK
  5
1D
100
AcDbEntity
 67
1
  8
0
100
AcDbBlockEnd
  0
BLOCK
  5
24
100
AcDbEntity
  8
0
100
AcDbBlockBegin
  2
*Paper_Space0
 70
0
 10
0.0
 20
0.0
 30
0.0
  3
*Paper_Space0
  1

  0
ENDBLK
  5
25
100
AcDbEntity
  8
0
100
AcDbBlockEnd
  0
BLOCK
  5
4A
100
AcDbEntity
  8
0
100
AcDbBlockBegin
  2
myblock1
 70
0
 10
0.0
 20
0.0
 30
0.0
  3
myblock1
  1

  0
ENDBLK
  5
4B
100
AcDbEntity
  8
0
100
AcDbBlockEnd
  0
BLOCK
  5
4C
100
AcDbEntity
  8
0
100
AcDbBlockBegin
  2
myblock2
 70
0
 10
0.0
 20
0.0
 30
0.0
  3
myblock2
  1

  0
ENDBLK
  5
4D
100
AcDbEntity
  8
0
100
AcDbBlockEnd
  0
ENDSEC
  0
SECTION
  2
ENTITIES
  0
LWPOLYLINE
  5
4E
100
AcDbEntity
  8
0
 62
256
420
16777215
370
-1
 48
1.0
  6
CONTINUOUS
100
AcDbPolyline
 90
583
 70
0
 10
515.95513916015625
 20
257.85067749023437
 30
0.0
 10
516.34039306640625
 20
257.88067626953125
 30
0.0
 10
516.72247314453125
 20
257.93057250976562
 30
0.0
 10
517.10064697265625
 20
257.99932861328125
 30
0.0
 10
517.47540283203125
 20
258.08758544921875
 30
0.0
 10
517.8463134765625
 20
258.19436645507812
 30
0.0
 10
518.21337890625
 20
258.31964111328125
 30
0.0
 10
518.57659912109375
 20
258.46337890625
 30
0.0
 10
518.9356689453125
 20
258.62527465820313
 30
0.0
 10
519.29052734375
 20
258.80499267578125
 30
0.0
 10
519.64117431640625
 20
259.00210571289062
 30
0.0
 10
519.9873046875
 20
259.21670532226562
 30
0.0
 10
520.32891845703125
 20
259.44839477539062
 30
0.0
 10
520.66595458984375
 20
259.69717407226562
 30
0.0
 10
520.99847412109375
 20
259.96234130859375
 30
0.0
 10
521.32611083984375
 20
260.24392700195312
 30
0.0
 10
521.64886474609375
 20
260.54156494140625
 30
0.0
 10
521.96673583984375
 20
260.85488891601562
 30
0.0
 10
522.27899169921875
 20
261.18426513671875
 30
0.0
 10
522.58642578125
 20
261.52865600585937
 30
0.0
 10
522.8885498046875
 20
261.88839721679687
 30
0.0
 10
523.18511962890625
 20
262.26312255859375
 30
0.0
 10
523.47613525390625
 20
262.65216064453125
 30
0.0
 10
523.76153564453125
 20
263.05587768554687
 30
0.0
 10
524.0413818359375
 20
263.47354125976562
 30
0.0
 10
524.31500244140625
 20
263.90548706054687
 30
0.0
 10
524.58294677734375
 20
264.3507080078125
 30
0.0
 10
524.844970703125
 20
264.80990600585937
 30
0.0
 10
525.10040283203125
 20
265.28164672851562
 30
0.0
 10
525.349853515625
 20
265.76663208007812
 30
0.0
 10
525.59271240234375
 20
266.26455688476562
 30
0.0
 10
525.82928466796875
 20
266.774658203125
 30
0.0
 10
526.0592041015625
 20
267.2969970703125
 30
0.0
 10
526.28253173828125
 20
267.83120727539063
 30
0.0
 10
526.49884033203125
 20
268.37725830078125
 30
0.0
 10
526.70855712890625
 20
268.93484497070312
 30
0.0
 10
526.91094970703125
 20
269.50357055664062
 30
0.0
 10
527.106689453125
 20
270.0831298828125
 30
0.0
 10
527.29473876953125
 20
270.67385864257812
 30
0.0
 10
527.47552490234375
 20
271.27468872070313
 30
0.0
 10
527.64923095703125
 20
271.88601684570312
 30
0.0
 10
527.81500244140625
 20
272.507080078125
 30
0.0
 10
527.973388671875
 20
273.137939453125
 30
0.0
 10
528.1241455078125
 20
273.778564453125
 30
0.0
 10
528.266845703125
 20
274.42825317382812
 30
0.0
 10
528.4014892578125
 20
275.08700561523437
 30
0.0
 10
528.5281982421875
 20
275.75485229492187
 30
0.0
 10
528.64678955078125
 20
276.43069458007812
 30
0.0
 10
528.757080078125
 20
277.11529541015625
 30
0.0
 10
528.85894775390625
 20
277.80789184570313
 30
0.0
 10
528.95245361328125
 20
278.5081787109375
 30
0.0
 10
529.0372314453125
 20
279.21578979492187
 30
0.0
 10
529.1136474609375
 20
279.93106079101562
 30
0.0
 10
529.1810302734375
 20
280.65335083007812
 30
0.0
 10
529.2396240234375
 20
281.38223266601562
 30
0.0
 10
529.2891845703125
 20
282.11810302734375
 30
0.0
 10
529.32965087890625
 20
282.85992431640625
 30
0.0
 10
529.3607177734375
 20
283.60800170898437
 30
0.0
 10
529.3826904296875
 20
284.36203002929687
 30
0.0
 10
529.395263671875
 20
285.12161254882812
 30
0.0
 10
529.39801025390625
 20
285.88644409179687
 30
0.0
 10
529.39141845703125
 20
286.65652465820313
 30
0.0
 10
529.375
 20
287.43112182617188
 30
0.0
 10
529.348876953125
 20
288.21063232421875
 30
0.0
 10
529.31256103515625
 20
288.99465942382812
 30
0.0
 10
529.2664794921875
 20
289.7779541015625
 30
0.0
 10
529.21136474609375
 20
290.55606079101562
 30
0.0
 10
529.146484375
 20
291.32821655273438
 30
0.0
 10
529.0728759765625
 20
292.09481811523437
 30
0.0
 10
528.98980712890625
 20
292.8551025390625
 30
0.0
 10
528.8980712890625
 20
293.609130859375
 30
0.0
 10
528.79754638671875
 20
294.35687255859375
 30
0.0
 10
528.6883544921875
 20
295.09762573242187
 30
0.0
 10
528.57037353515625
 20
295.8310546875
 30
0.0
 10
528.4444580078125
 20
296.5574951171875
 30
0.0
 10
528.30975341796875
 20
297.276611328125
 30
0.0
 10
528.1673583984375
 20
297.98773193359375
 30
0.0
 10
528.01666259765625
 20
298.69113159179687
 30
0.0
 10
527.8582763671875
 20
299.38619995117187
 30
0.0
 10
527.69219970703125
 20
300.0728759765625
 30
0.0
 10
527.5184326171875
 20
300.75082397460937
 30
0.0
 10
527.3372802734375
 20
301.4200439453125
 30
0.0
 10
527.1485595703125
 20
302.07986450195312
 30
0.0
 10
526.95281982421875
 20
302.7305908203125
 30
0.0
 10
526.749755859375
 20
303.37191772460937
 30
0.0
 10
526.5400390625
 20
304.00311279296875
 30
0.0
 10
526.3233642578125
 20
304.62420654296875
 30
0.0
 10
526.09967041015625
 20
305.23516845703125
 30
0.0
 10
525.8697509765625
 20
305.83566284179687
 30
0.0
 10
525.633544921875
 20
306.42568969726562
 30
0.0
 10
525.39068603515625
 20
307.00418090820312
 30
0.0
 10
525.14190673828125
 20
307.57186889648438
 30
0.0
 10
524.8868408203125
 20
308.1280517578125
 30
0.0
 10
524.6258544921875
 20
308.67236328125
 30
0.0
 10
524.35931396484375
 20
309.204833984375
 30
0.0
 10
524.0867919921875
 20
309.72540283203125
 30
0.0
 10
523.80902099609375
 20
310.23345947265625
 30
0.0
 10
523.52569580078125
 20
310.72891235351562
 30
0.0
 10
523.23712158203125
 20
311.21148681640625
 30
0.0
 10
522.943359375
 20
311.68112182617187
 30
0.0
 10
522.6446533203125
 20
312.13751220703125
 30
0.0
 10
522.34112548828125
 20
312.57992553710937
 30
0.0
 10
522.03302001953125
 20
313.00909423828125
 30
0.0
 10
521.78936767578125
 20
313.33209228515625
 30
0.0
 10
521.7584228515625
 20
313.51922607421875
 30
0.0
 10
521.6746826171875
 20
313.9564208984375
 30
0.0
 10
521.58013916015625
 20
314.38943481445312
 30
0.0
 10
521.47540283203125
 20
314.8189697265625
 30
0.0
 10
521.36029052734375
 20
315.24395751953125
 30
0.0
 10
521.23541259765625
 20
315.66510009765625
 30
0.0
 10
521.0999755859375
 20
316.08135986328125
 30
0.0
 10
520.954833984375
 20
316.49343872070312
 30
0.0
 10
520.7999267578125
 20
316.900634765625
 30
0.0
 10
520.6356201171875
 20
317.30328369140625
 30
0.0
 10
520.46185302734375
 20
317.70071411132812
 30
0.0
 10
520.27862548828125
 20
318.0928955078125
 30
0.0
 10
520.08642578125
 20
318.47982788085937
 30
0.0
 10
519.88470458984375
 20
318.861572265625
 30
0.0
 10
519.6746826171875
 20
319.23770141601562
 30
0.0
 10
519.45556640625
 20
319.60824584960937
 30
0.0
 10
519.22772216796875
 20
319.97286987304687
 30
0.0
 10
518.9918212890625
 20
320.3319091796875
 30
0.0
 10
518.74725341796875
 20
320.684326171875
 30
0.0
 10
518.49462890625
 20
321.03079223632812
 30
0.0
 10
518.23394775390625
 20
321.37100219726562
 30
0.0
 10
517.96533203125
 20
321.7042236328125
 30
0.0
 10
517.68896484375
 20
322.03115844726562
 30
0.0
 10
517.40496826171875
 20
322.35147094726562
 30
0.0
 10
517.11322021484375
 20
322.66445922851562
 30
0.0
 10
516.8145751953125
 20
322.970458984375
 30
0.0
 10
516.508544921875
 20
323.26947021484375
 30
0.0
 10
516.19525146484375
 20
323.56082153320312
 30
0.0
 10
515.87530517578125
 20
323.8448486328125
 30
0.0
 10
515.54833984375
 20
324.12118530273437
 30
0.0
 10
515.21478271484375
 20
324.38986206054687
 30
0.0
 10
514.87457275390625
 20
324.6505126953125
 30
0.0
 10
514.5284423828125
 20
324.90313720703125
 30
0.0
 10
514.1756591796875
 20
325.147705078125
 30
0.0
 10
513.81695556640625
 20
325.38394165039063
 30
0.0
 10
513.45233154296875
 20
325.61141967773437
 30
0.0
 10
513.081787109375
 20
325.83056640625
 30
0.0
 10
512.7056884765625
 20
326.04095458984375
 30
0.0
 10
512.323974609375
 20
326.24227905273437
 30
0.0
 10
511.93667602539062
 20
326.43453979492187
 30
0.0
 10
511.54449462890625
 20
326.61770629882812
 30
0.0
 10
511.14706420898438
 20
326.79147338867187
 30
0.0
 10
510.74441528320313
 20
326.9561767578125
 30
0.0
 10
510.33721923828125
 20
327.11074829101563
 30
0.0
 10
509.92514038085937
 20
327.25588989257812
 30
0.0
 10
509.50888061523437
 20
327.39126586914062
 30
0.0
 10
509.08773803710937
 20
327.51654052734375
 30
0.0
 10
508.66275024414062
 20
327.63134765625
 30
0.0
 10
508.23321533203125
 20
327.73602294921875
 30
0.0
 10
507.80020141601562
 20
327.83056640625
 30
0.0
 10
507.36300659179688
 20
327.914306640625
 30
0.0
 10
506.92196655273437
 20
327.98724365234375
 30
0.0
 10
506.47744750976563
 20
328.04934692382812
 30
0.0
 10
506.02978515625
 20
328.10064697265625
 30
0.0
 10
505.57864379882813
 20
328.1407470703125
 30
0.0
 10
505.12432861328125
 20
328.16970825195312
 30
0.0
 10
504.66690063476562
 20
328.18682861328125
 30
0.0
 10
504.2066650390625
 20
328.1927490234375
 30
0.0
 10
503.7464599609375
 20
328.18682861328125
 30
0.0
 10
503.28900146484375
 20
328.16970825195312
 30
0.0
 10
502.834716796875
 20
328.1407470703125
 30
0.0
 10
502.38357543945312
 20
328.10064697265625
 30
0.0
 10
501.935546875
 20
328.04934692382812
 30
0.0
 10
501.49139404296875
 20
327.98724365234375
 30
0.0
 10
501.05032348632812
 20
327.914306640625
 30
0.0
 10
500.6131591796875
 20
327.83056640625
 30
0.0
 10
500.17977905273438
 20
327.73602294921875
 30
0.0
 10
499.7506103515625
 20
327.63134765625
 30
0.0
 10
499.32528686523437
 20
327.51654052734375
 30
0.0
 10
498.90447998046875
 20
327.39126586914062
 30
0.0
 10
498.48785400390625
 20
327.25588989257812
 30
0.0
 10
498.0758056640625
 20
327.11074829101563
 30
0.0
 10
497.66860961914062
 20
326.9561767578125
 30
0.0
 10
497.26629638671875
 20
326.79147338867187
 30
0.0
 10
496.86886596679687
 20
326.61770629882812
 30
0.0
 10
496.47634887695312
 20
326.43453979492187
 30
0.0
 10
496.08938598632812
 20
326.24227905273437
 30
0.0
 10
495.70767211914062
 20
326.04095458984375
 30
0.0
 10
495.33154296875
 20
325.83056640625
 30
0.0
 10
494.96096801757813
 20
325.61141967773437
 30
0.0
 10
494.90826416015625
 20
325.57855224609375
 30
0.0
 10
494.848876953125
 20
325.5872802734375
 30
0.0
 10
493.95285034179687
 20
325.71078491210937
 30
0.0
 10
493.04635620117187
 20
325.82699584960937
 30
0.0
 10
492.1290283203125
 20
325.93585205078125
 30
0.0
 10
491.20196533203125
 20
326.03738403320312
 30
0.0
 10
490.2647705078125
 20
326.13125610351562
 30
0.0
 10
489.31814575195312
 20
326.21743774414062
 30
0.0
 10
488.36245727539062
 20
326.29592895507812
 30
0.0
 10
487.39767456054687
 20
326.36676025390625
 30
0.0
 10
486.42453002929687
 20
326.4295654296875
 30
0.0
 10
485.44302368164062
 20
326.48434448242187
 30
0.0
 10
484.4534912109375
 20
326.53109741210937
 30
0.0
 10
483.45663452148437
 20
326.56948852539062
 30
0.0
 10
482.45208740234375
 20
326.5994873046875
 30
0.0
 10
481.4405517578125
 20
326.62112426757812
 30
0.0
 10
480.42239379882812
 20
326.634033203125
 30
0.0
 10
479.39797973632812
 20
326.63858032226562
 30
0.0
 10
478.37353515625
 20
326.634033203125
 30
0.0
 10
477.35537719726562
 20
326.62112426757812
 30
0.0
 10
476.3438720703125
 20
326.5994873046875
 30
0.0
 10
475.33932495117187
 20
326.56948852539062
 30
0.0
 10
474.34246826171875
 20
326.53109741210937
 30
0.0
 10
473.3529052734375
 20
326.48434448242187
 30
0.0
 10
472.37139892578125
 20
326.4295654296875
 30
0.0
 10
471.39825439453125
 20
326.36676025390625
 30
0.0
 10
470.43350219726562
 20
326.29592895507812
 30
0.0
 10
469.47781372070313
 20
326.21743774414062
 30
0.0
 10
468.53118896484375
 20
326.13125610351562
 30
0.0
 10
467.593994140625
 20
326.03738403320312
 30
0.0
 10
466.66690063476562
 20
325.93585205078125
 30
0.0
 10
465.74960327148437
 20
325.82699584960937
 30
0.0
 10
464.84307861328125
 20
325.71078491210937
 30
0.0
 10
463.94705200195312
 20
325.5872802734375
 30
0.0
 10
463.90176391601562
 20
325.58062744140625
 30
0.0
 10
463.83514404296875
 20
325.62225341796875
 30
0.0
 10
463.464599609375
 20
325.84136962890625
 30
0.0
 10
463.08843994140625
 20
326.05142211914062
 30
0.0
 10
462.70672607421875
 20
326.25311279296875
 30
0.0
 10
462.31942749023437
 20
326.44534301757813
 30
0.0
 10
461.92724609375
 20
326.6285400390625
 30
0.0
 10
461.52981567382812
 20
326.80230712890625
 30
0.0
 10
461.12716674804687
 20
326.96664428710937
 30
0.0
 10
460.719970703125
 20
327.12155151367187
 30
0.0
 10
460.30789184570312
 20
327.2667236328125
 30
0.0
 10
459.89163208007812
 20
327.402099609375
 30
0.0
 10
459.47048950195312
 20
327.52700805664062
 30
0.0
 10
459.04550170898437
 20
327.64215087890625
 30
0.0
 10
458.61599731445312
 20
327.746826171875
 30
0.0
 10
458.1829833984375
 20
327.84140014648437
 30
0.0
 10
457.74578857421875
 20
327.92514038085937
 30
0.0
 10
457.30474853515625
 20
327.998046875
 30
0.0
 10
456.8602294921875
 20
328.06015014648437
 30
0.0
 10
456.41253662109375
 20
328.1114501953125
 30
0.0
 10
455.96139526367187
 20
328.15158081054687
 30
0.0
 10
455.50711059570312
 20
328.1805419921875
 30
0.0
 10
455.0496826171875
 20
328.1976318359375
 30
0.0
 10
454.58944702148437
 20
328.20355224609375
 30
0.0
 10
454.12921142578125
 20
328.1976318359375
 30
0.0
 10
453.67178344726562
 20
328.1805419921875
 30
0.0
 10
453.21749877929687
 20
328.15158081054687
 30
0.0
 10
452.76632690429687
 20
328.1114501953125
 30
0.0
 10
452.31866455078125
 20
328.06015014648437
 30
0.0
 10
451.8741455078125
 20
327.998046875
 30
0.0
 10
451.43310546875
 20
327.92514038085937
 30
0.0
 10
450.99591064453125
 20
327.84140014648437
 30
0.0
 10
450.56289672851563
 20
327.746826171875
 30
0.0
 10
450.13336181640625
 20
327.64215087890625
 30
0.0
 10
449.7083740234375
 20
327.52700805664062
 30
0.0
 10
449.2872314453125
 20
327.402099609375
 30
0.0
 10
448.8709716796875
 20
327.2667236328125
 30
0.0
 10
448.45889282226562
 20
327.12155151367187
 30
0.0
 10
448.05172729492187
 20
326.96664428710937
 30
0.0
 10
447.6490478515625
 20
326.80230712890625
 30
0.0
 10
447.25164794921875
 20
326.6285400390625
 30
0.0
 10
446.85946655273437
 20
326.44534301757813
 30
0.0
 10
446.47213745117187
 20
326.25311279296875
 30
0.0
 10
446.09042358398437
 20
326.05142211914062
 30
0.0
 10
445.71429443359375
 20
325.84136962890625
 30
0.0
 10
445.34371948242187
 20
325.62225341796875
 30
0.0
 10
444.9791259765625
 20
325.3944091796875
 30
0.0
 10
444.62042236328125
 20
325.15853881835938
 30
0.0
 10
444.26766967773437
 20
324.9139404296875
 30
0.0
 10
443.92153930664062
 20
324.66131591796875
 30
0.0
 10
443.58132934570312
 20
324.40066528320313
 30
0.0
 10
443.24777221679687
 20
324.13201904296875
 30
0.0
 10
442.92083740234375
 20
323.85565185546875
 30
0.0
 10
442.60086059570312
 20
323.5716552734375
 30
0.0
 10
442.28753662109375
 20
323.27993774414062
 30
0.0
 10
441.98153686523437
 20
322.98126220703125
 30
0.0
 10
441.682861328125
 20
322.67526245117187
 30
0.0
 10
441.39117431640625
 20
322.3619384765625
 30
0.0
 10
441.10714721679687
 20
322.04196166992187
 30
0.0
 10
440.830810546875
 20
321.71502685546875
 30
0.0
 10
440.5621337890625
 20
321.3814697265625
 30
0.0
 10
440.30148315429687
 20
321.041259765625
 30
0.0
 10
440.04885864257812
 20
320.69512939453125
 30
0.0
 10
439.80426025390625
 20
320.34237670898437
 30
0.0
 10
439.56838989257812
 20
319.98367309570312
 30
0.0
 10
439.34054565429687
 20
319.61907958984375
 30
0.0
 10
439.12142944335937
 20
319.24850463867187
 30
0.0
 10
438.911376953125
 20
318.87237548828125
 30
0.0
 10
438.709716796875
 20
318.49066162109375
 30
0.0
 10
438.5174560546875
 20
318.10336303710937
 30
0.0
 10
438.33425903320312
 20
317.711181640625
 30
0.0
 10
438.16049194335937
 20
317.31375122070313
 30
0.0
 10
437.99615478515625
 20
316.91110229492187
 30
0.0
 10
437.84124755859375
 20
316.50390625
 30
0.0
 10
437.69610595703125
 20
316.09182739257812
 30
0.0
 10
437.56069946289062
 20
315.67556762695312
 30
0.0
 10
437.435791015625
 20
315.25442504882812
 30
0.0
 10
437.32064819335937
 20
314.82943725585937
 30
0.0
 10
437.21597290039062
 20
314.39990234375
 30
0.0
 10
437.12142944335937
 20
313.96688842773437
 30
0.0
 10
437.03768920898437
 20
313.52969360351562
 30
0.0
 10
437.00674438476562
 20
313.34255981445312
 30
0.0
 10
436.76309204101562
 20
313.01959228515625
 30
0.0
 10
436.45462036132812
 20
312.59039306640625
 30
0.0
 10
436.15106201171875
 20
312.14797973632812
 30
0.0
 10
435.85238647460937
 20
311.69158935546875
 30
0.0
 10
435.55859375
 20
311.221923828125
 30
0.0
 10
435.27005004882812
 20
310.7393798828125
 30
0.0
 10
434.98672485351562
 20
310.24392700195313
 30
0.0
 10
434.708984375
 20
309.73590087890625
 30
0.0
 10
434.43646240234375
 20
309.21563720703125
 30
0.0
 10
434.16989135742187
 20
308.68283081054687
 30
0.0
 10
433.90890502929687
 20
308.13851928710937
 30
0.0
 10
433.65383911132812
 20
307.58233642578125
 30
0.0
 10
433.40505981445312
 20
307.0150146484375
 30
0.0
 10
433.16220092773437
 20
306.4361572265625
 30
0.0
 10
432.92599487304687
 20
305.84646606445312
 30
0.0
 10
432.696044921875
 20
305.2459716796875
 30
0.0
 10
432.472412109375
 20
304.635009765625
 30
0.0
 10
432.25570678710937
 20
304.01394653320312
 30
0.0
 10
432.0460205078125
 20
303.38238525390625
 30
0.0
 10
431.84295654296875
 20
302.74142456054687
 30
0.0
 10
431.647216796875
 20
302.09066772460937
 30
0.0
 10
431.45877075195312
 20
301.43087768554687
 30
0.0
 10
431.27734375
 20
300.76165771484375
 30
0.0
 10
431.10357666015625
 20
300.08367919921875
 30
0.0
 10
430.9375
 20
299.39700317382812
 30
0.0
 10
430.77908325195312
 20
298.70196533203125
 30
0.0
 10
430.62869262695312
 20
297.99853515625
 30
0.0
 10
430.48599243164062
 20
297.28744506835937
 30
0.0
 10
430.35165405273437
 20
296.56832885742187
 30
0.0
 10
430.2257080078125
 20
295.84185791015625
 30
0.0
 10
430.10775756835937
 20
295.10842895507812
 30
0.0
 10
429.99856567382812
 20
294.36767578125
 30
0.0
 10
429.8980712890625
 20
293.61993408203125
 30
0.0
 10
429.80630493164062
 20
292.86590576171875
 30
0.0
 10
429.7232666015625
 20
292.10562133789062
 30
0.0
 10
429.64962768554687
 20
291.33905029296875
 30
0.0
 10
429.58474731445312
 20
290.56689453125
 30
0.0
 10
429.52960205078125
 20
289.78878784179687
 30
0.0
 10
429.48355102539062
 20
289.00546264648437
 30
0.0
 10
429.447265625
 20
288.221435546875
 30
0.0
 10
429.42108154296875
 20
287.44195556640625
 30
0.0
 10
429.40469360351562
 20
286.6673583984375
 30
0.0
 10
429.3980712890625
 20
285.89727783203125
 30
0.0
 10
429.40084838867187
 20
285.1324462890625
 30
0.0
 10
429.41342163085937
 20
284.37283325195312
 30
0.0
 10
429.43539428710937
 20
283.61880493164062
 30
0.0
 10
429.46646118164062
 20
282.8707275390625
 30
0.0
 10
429.50692749023437
 20
282.12893676757812
 30
0.0
 10
429.55645751953125
 20
281.39303588867187
 30
0.0
 10
429.61508178710937
 20
280.66415405273437
 30
0.0
 10
429.68243408203125
 20
279.94189453125
 30
0.0
 10
429.75885009765625
 20
279.22659301757812
 30
0.0
 10
429.8436279296875
 20
278.51898193359375
 30
0.0
 10
429.9371337890625
 20
277.81869506835937
 30
0.0
 10
430.03903198242187
 20
277.1260986328125
 30
0.0
 10
430.1492919921875
 20
276.4415283203125
 30
0.0
 10
430.26791381835937
 20
275.76565551757812
 30
0.0
 10
430.39456176757812
 20
275.09780883789062
 30
0.0
 10
430.52926635742187
 20
274.43905639648437
 30
0.0
 10
430.67196655273437
 20
273.78936767578125
 30
0.0
 10
430.82269287109375
 20
273.14877319335937
 30
0.0
 10
430.98077392578125
 20
272.51791381835937
 30
0.0
 10
431.1468505859375
 20
271.89682006835937
 30
0.0
 10
431.32025146484375
 20
271.2855224609375
 30
0.0
 10
431.50100708007812
 20
270.68466186523437
 30
0.0
 10
431.68942260742188
 20
270.09396362304688
 30
0.0
 10
431.88482666015625
 20
269.514404296875
 30
0.0
 10
432.08718872070312
 20
268.94564819335937
 30
0.0
 10
432.29690551757812
 20
268.3880615234375
 30
0.0
 10
432.51321411132812
 20
267.84201049804687
 30
0.0
 10
432.73654174804687
 20
267.30783081054687
 30
0.0
 10
432.96646118164062
 20
266.78549194335937
 30
0.0
 10
433.20303344726562
 20
266.27536010742187
 30
0.0
 10
433.44589233398438
 20
265.7774658203125
 30
0.0
 10
433.69537353515625
 20
265.29244995117187
 30
0.0
 10
433.95111083984375
 20
264.82070922851562
 30
0.0
 10
434.21279907226562
 20
264.36154174804688
 30
0.0
 10
434.48077392578125
 20
263.91632080078125
 30
0.0
 10
434.75469970703125
 20
263.48434448242187
 30
0.0
 10
435.0341796875
 20
263.06668090820312
 30
0.0
 10
435.3199462890625
 20
262.66299438476562
 30
0.0
 10
435.61093139648438
 20
262.27392578125
 30
0.0
 10
435.90753173828125
 20
261.89920043945312
 30
0.0
 10
436.2093505859375
 20
261.53945922851563
 30
0.0
 10
436.51675415039062
 20
261.195068359375
 30
0.0
 10
436.82937622070312
 20
260.86569213867187
 30
0.0
 10
437.14724731445312
 20
260.5523681640625
 30
0.0
 10
437.47000122070313
 20
260.25473022460937
 30
0.0
 10
437.79763793945312
 20
259.97314453125
 30
0.0
 10
438.13015747070312
 20
259.70797729492187
 30
0.0
 10
438.46719360351562
 20
259.45919799804687
 30
0.0
 10
438.80880737304687
 20
259.22750854492187
 30
0.0
 10
439.15493774414062
 20
259.012939453125
 30
0.0
 10
439.50558471679687
 20
258.8157958984375
 30
0.0
 10
439.86044311523437
 20
258.6361083984375
 30
0.0
 10
440.219482421875
 20
258.47418212890625
 30
0.0
 10
440.58270263671875
 20
258.3304443359375
 30
0.0
 10
440.94976806640625
 20
258.20516967773437
 30
0.0
 10
441.3206787109375
 20
258.09841918945312
 30
0.0
 10
441.6954345703125
 20
258.0101318359375
 30
0.0
 10
442.07363891601562
 20
257.94140625
 30
0.0
 10
442.45571899414062
 20
257.89151000976562
 30
0.0
 10
442.84091186523437
 20
257.86148071289062
 30
0.0
 10
443.2271728515625
 20
257.85101318359375
 30
0.0
 10
443.61239624023437
 20
257.86080932617187
 30
0.0
 10
443.995849609375
 20
257.88973999023437
 30
0.0
 10
444.3775634765625
 20
257.93826293945312
 30
0.0
 10
444.757568359375
 20
258.00558471679687
 30
0.0
 10
445.13577270507812
 20
258.09213256835937
 30
0.0
 10
445.51190185546875
 20
258.1971435546875
 30
0.0
 10
445.88595581054687
 20
258.3203125
 30
0.0
 10
446.257568359375
 20
258.46197509765625
 30
0.0
 10
446.6270751953125
 20
258.62142944335937
 30
0.0
 10
446.9937744140625
 20
258.79867553710937
 30
0.0
 10
447.35769653320312
 20
258.993408203125
 30
0.0
 10
447.71884155273438
 20
259.20553588867187
 30
0.0
 10
448.07717895507812
 20
259.43441772460937
 30
0.0
 10
448.432373046875
 20
259.6800537109375
 30
0.0
 10
448.78445434570312
 20
259.94244384765625
 30
0.0
 10
449.13336181640625
 20
260.22088623046875
 30
0.0
 10
449.47845458984375
 20
260.51571655273438
 30
0.0
 10
449.82040405273438
 20
260.82626342773437
 30
0.0
 10
450.15814208984375
 20
261.15252685546875
 30
0.0
 10
450.49240112304687
 20
261.49374389648438
 30
0.0
 10
450.82247924804687
 20
261.8507080078125
 30
0.0
 10
451.14874267578125
 20
262.2222900390625
 30
0.0
 10
451.47042846679687
 20
262.60855102539062
 30
0.0
 10
451.7879638671875
 20
263.00912475585937
 30
0.0
 10
452.1009521484375
 20
263.42431640625
 30
0.0
 10
452.40902709960937
 20
263.8531494140625
 30
0.0
 10
452.71258544921875
 20
264.29592895507812
 30
0.0
 10
453.01126098632812
 20
264.75198364257812
 30
0.0
 10
453.3050537109375
 20
265.22161865234375
 30
0.0
 10
453.5936279296875
 20
265.70419311523437
 30
0.0
 10
453.876953125
 20
266.19964599609375
 30
0.0
 10
454.15469360351562
 20
266.70767211914062
 30
0.0
 10
454.42718505859375
 20
267.228271484375
 30
0.0
 10
454.69375610351562
 20
267.76071166992187
 30
0.0
 10
454.95477294921875
 20
268.30502319335937
 30
0.0
 10
455.20980834960937
 20
268.8612060546875
 30
0.0
 10
455.4586181640625
 20
269.42892456054687
 30
0.0
 10
455.70144653320312
 20
270.00741577148437
 30
0.0
 10
455.93768310546875
 20
270.59744262695312
 30
0.0
 10
456.1676025390625
 20
271.19793701171875
 30
0.0
 10
456.39126586914062
 20
271.80889892578125
 30
0.0
 10
456.60794067382812
 20
272.42999267578125
 30
0.0
 10
456.81765747070312
 20
273.06118774414062
 30
0.0
 10
457.02072143554687
 20
273.70248413085937
 30
0.0
 10
457.21646118164062
 20
274.35324096679687
 30
0.0
 10
457.40524291992187
 20
275.01303100585937
 30
0.0
 10
457.58633422851562
 20
275.6822509765625
 30
0.0
 10
457.76010131835937
 20
276.3602294921875
 30
0.0
 10
457.92617797851562
 20
277.04690551757813
 30
0.0
 10
458.0845947265625
 20
277.741943359375
 30
0.0
 10
458.23532104492187
 20
278.44537353515625
 30
0.0
 10
458.377685546875
 20
279.15646362304687
 30
0.0
 10
458.51235961914062
 20
279.87557983398438
 30
0.0
 10
458.6383056640625
 20
280.60205078125
 30
0.0
 10
458.75625610351562
 20
281.33547973632812
 30
0.0
 10
458.865478515625
 20
282.07623291015625
 30
0.0
 10
458.9659423828125
 20
282.823974609375
 30
0.0
 10
459.05770874023437
 20
283.5780029296875
 30
0.0
 10
459.14077758789063
 20
284.33828735351562
 30
0.0
 10
459.21438598632812
 20
285.10488891601562
 30
0.0
 10
459.279296875
 20
285.87704467773437
 30
0.0
 10
459.33441162109375
 20
286.65512084960937
 30
0.0
 10
459.38046264648437
 20
287.43844604492187
 30
0.0
 10
459.416748046875
 20
288.22247314453125
 30
0.0
 10
459.44293212890625
 20
289.00198364257813
 30
0.0
 10
459.45932006835937
 20
289.77658081054687
 30
0.0
 10
459.4659423828125
 20
290.546630859375
 30
0.0
 10
459.46560668945312
 20
290.63967895507812
 30
0.0
 10
459.57760620117187
 20
290.61956787109375
 30
0.0
 10
460.46875
 20
290.46847534179687
 30
0.0
 10
461.37246704101562
 20
290.32437133789062
 30
0.0
 10
462.28872680664062
 20
290.1868896484375
 30
0.0
 10
463.21649169921875
 20
290.056396484375
 30
0.0
 10
464.15615844726562
 20
289.9332275390625
 30
0.0
 10
465.10662841796875
 20
289.81704711914062
 30
0.0
 10
466.06857299804687
 20
289.70819091796875
 30
0.0
 10
467.041015625
 20
289.60665893554687
 30
0.0
 10
468.02359008789062
 20
289.51278686523437
 30
0.0
 10
469.01626586914062
 20
289.42660522460937
 30
0.0
 10
470.01837158203125
 20
289.34774780273437
 30
0.0
 10
471.03024291992187
 20
289.27728271484375
 30
0.0
 10
472.05084228515625
 20
289.2144775390625
 30
0.0
 10
473.08016967773437
 20
289.15966796875
 30
0.0
 10
474.11749267578125
 20
289.1129150390625
 30
0.0
 10
475.1632080078125
 20
289.07455444335937
 30
0.0
 10
476.21661376953125
 20
289.04452514648437
 30
0.0
 10
477.27731323242187
 20
289.02291870117187
 30
0.0
 10
478.34503173828125
 20
289.010009765625
 30
0.0
 10
479.41934204101562
 20
289.00546264648437
 30
0.0
 10
480.49368286132812
 20
289.010009765625
 30
0.0
 10
481.56137084960937
 20
289.02291870117187
 30
0.0
 10
482.62210083007812
 20
289.04452514648437
 30
0.0
 10
483.67547607421875
 20
289.07455444335937
 30
0.0
 10
484.72119140625
 20
289.1129150390625
 30
0.0
 10
485.758544921875
 20
289.15966796875
 30
0.0
 10
486.787841796875
 20
289.2144775390625
 30
0.0
 10
487.80844116210937
 20
289.27728271484375
 30
0.0
 10
488.8203125
 20
289.34774780273437
 30
0.0
 10
489.82241821289062
 20
289.42660522460937
 30
0.0
 10
490.81509399414062
 20
289.51278686523437
 30
0.0
 10
491.79766845703125
 20
289.60665893554687
 30
0.0
 10
492.77011108398437
 20
289.70819091796875
 30
0.0
 10
493.73208618164062
 20
289.81704711914062
 30
0.0
 10
494.68252563476562
 20
289.9332275390625
 30
0.0
 10
495.6221923828125
 20
290.056396484375
 30
0.0
 10
496.54995727539062
 20
290.1868896484375
 30
0.0
 10
497.46621704101562
 20
290.32437133789062
 30
0.0
 10
498.36993408203125
 20
290.46847534179687
 30
0.0
 10
499.26107788085937
 20
290.61956787109375
 30
0.0
 10
499.33050537109375
 20
290.63204956054687
 30
0.0
 10
499.33016967773437
 20
290.53616333007812
 30
0.0
 10
499.3367919921875
 20
289.76611328125
 30
0.0
 10
499.35321044921875
 20
288.99114990234375
 30
0.0
 10
499.37936401367187
 20
288.211669921875
 30
0.0
 10
499.4156494140625
 20
287.427978515625
 30
0.0
 10
499.46170043945312
 20
286.6446533203125
 30
0.0
 10
499.516845703125
 20
285.8665771484375
 30
0.0
 10
499.58172607421875
 20
285.09442138671875
 30
0.0
 10
499.65536499023437
 20
284.32781982421875
 30
0.0
 10
499.7384033203125
 20
283.56753540039062
 30
0.0
 10
499.83016967773437
 20
282.81350708007812
 30
0.0
 10
499.9306640625
 20
282.06576538085937
 30
0.0
 10
500.03985595703125
 20
281.32501220703125
 30
0.0
 10
500.15780639648437
 20
280.59158325195312
 30
0.0
 10
500.28375244140625
 20
279.86514282226562
 30
0.0
 10
500.4180908203125
 20
279.14599609375
 30
0.0
 10
500.56082153320312
 20
278.43490600585937
 30
0.0
 10
500.711181640625
 20
277.73147583007812
 30
0.0
 10
500.86959838867188
 20
277.03643798828125
 30
0.0
 10
501.03567504882812
 20
276.34976196289062
 30
0.0
 10
501.20944213867187
 20
275.67178344726562
 30
0.0
 10
501.39089965820313
 20
275.0025634765625
 30
0.0
 10
501.57931518554687
 20
274.3427734375
 30
0.0
 10
501.77505493164062
 20
273.6920166015625
 30
0.0
 10
501.97811889648437
 20
273.05072021484375
 30
0.0
 10
502.18783569335937
 20
272.41949462890625
 30
0.0
 10
502.40451049804687
 20
271.79843139648437
 30
0.0
 10
502.62814331054687
 20
271.18746948242187
 30
0.0
 10
502.85809326171875
 20
270.58697509765625
 30
0.0
 10
503.09432983398438
 20
269.9969482421875
 30
0.0
 10
503.337158203125
 20
269.41842651367187
 30
0.0
 10
503.5859375
 20
268.85073852539062
 30
0.0
 10
503.84100341796875
 20
268.2945556640625
 30
0.0
 10
504.10198974609375
 20
267.750244140625
 30
0.0
 10
504.36859130859375
 20
267.21780395507812
 30
0.0
 10
504.64108276367187
 20
266.69720458984375
 30
0.0
 10
504.9188232421875
 20
266.18917846679688
 30
0.0
 10
505.2021484375
 20
265.69369506835937
 30
0.0
 10
505.49069213867187
 20
265.21115112304688
 30
0.0
 10
505.78448486328125
 20
264.74151611328125
 30
0.0
 10
506.08316040039062
 20
264.28512573242187
 30
0.0
 10
506.38674926757812
 20
263.84268188476562
 30
0.0
 10
506.6951904296875
 20
263.41351318359375
 30
0.0
 10
507.00814819335937
 20
262.9986572265625
 30
0.0
 10
507.32568359375
 20
262.59774780273437
 30
0.0
 10
507.64739990234375
 20
262.21148681640625
 30
0.0
 10
507.9736328125
 20
261.83987426757812
 30
0.0
 10
508.3037109375
 20
261.4832763671875
 30
0.0
 10
508.63796997070312
 20
261.14169311523437
 30
0.0
 10
508.9757080078125
 20
260.81546020507812
 30
0.0
 10
509.31765747070312
 20
260.50491333007812
 30
0.0
 10
509.66275024414062
 20
260.2100830078125
 30
0.0
 10
510.01168823242187
 20
259.931640625
 30
0.0
 10
510.36373901367188
 20
259.66925048828125
 30
0.0
 10
510.71893310546875
 20
259.42361450195313
 30
0.0
 10
511.0772705078125
 20
259.19473266601562
 30
0.0
 10
511.43841552734375
 20
258.98257446289062
 30
0.0
 10
511.80267333984375
 20
258.78787231445312
 30
0.0
 10
512.16937255859375
 20
258.61062622070313
 30
0.0
 10
512.53851318359375
 20
258.451171875
 30
0.0
 10
512.91015625
 20
258.30950927734375
 30
0.0
 10
513.2841796875
 20
258.18634033203125
 30
0.0
 10
513.66033935546875
 20
258.081298828125
 30
0.0
 10
514.03857421875
 20
257.99478149414062
 30
0.0
 10
514.41851806640625
 20
257.92742919921875
 30
0.0
 10
514.80059814453125
 20
257.87893676757812
 30
0.0
 10
515.18408203125
 20
257.8499755859375
 30
0.0
 10
515.56890869140625
 20
257.8402099609375
 30
0.0
 10
515.95513916015625
 20
257.85067749023437
 30
0.0
  0
ENDSEC
  0
SECTION
  2
OBJECTS
  0
DICTIONARY
  5
C
100
AcDbDictionary
280
0
281
1
  3
ACAD_GROUP
350
D
  3
ACAD_LAYOUT
350
1A
  3
ACAD_MLINESTYLE
350
17
  3
ACAD_PLOTSETTINGS
350
19
  3
ACAD_PLOTSTYLENAME
350
E
  3
AcDbVariableDictionary
350
4F
  0
DICTIONARY
  5
D
100
AcDbDictionary
280
0
281
1
  0
ACDBDICTIONARYWDFLT
  5
E
100
AcDbDictionary
281
1
  3
Normal
350
F
100
AcDbDictionaryWithDefault
340
F
  0
ACDBPLACEHOLDER
  5
F
  0
DICTIONARY
  5
17
100
AcDbDictionary
280
0
281
1
  3
Standard
350
18
  0
MLINESTYLE
  5
18
100
AcDbMlineStyle
  2
STANDARD
 70
0
  3

 62
256
 51
90.0
 52
90.0
 71
2
 49
0.5
 62
256
  6
BYLAYER
 49
-0.5
 62
256
  6
BYLAYER
  0
DICTIONARY
  5
19
100
AcDbDictionary
280
0
281
1
  0
DICTIONARY
  5
1A
100
AcDbDictionary
281
1
  3
Layout1
350
1E
  3
Layout2
350
26
  3
Model
350
22
  0
LAYOUT
  5
1E
100
AcDbPlotSettings
  1

  2
none_device
  4

  6

 40
0.0
 41
0.0
 42
0.0
 43
0.0
 44
0.0
 45
0.0
 46
0.0
 47
0.0
 48
0.0
 49
0.0
140
0.0
141
0.0
142
1.0
143
1.0
 70
688
 72
0
 73
0
 74
5
  7

 75
16
147
1.0
148
0.0
149
0.0
100
AcDbLayout
  1
Layout1
 70
1
 71
1
 10
0.0
 20
0.0
 11
420.0
 21
297.0
 12
0.0
 22
0.0
 32
0.0
 14
100000000000000000000.0
 24
100000000000000000000.0
 34
100000000000000000000.0
 15
-100000000000000000000.0
 25
-100000000000000000000.0
 35
-100000000000000000000.0
146
0.0
 13
0.0
 23
0.0
 33
0.0
 16
1.0
 26
0.0
 36
0.0
 17
0.0
 27
1.0
 37
0.0
 76
0
330
1B
  0
LAYOUT
  5
22
100
AcDbPlotSettings
  1

  2
none_device
  4

  6

 40
0.0
 41
0.0
 42
0.0
 43
0.0
 44
0.0
 45
0.0
 46
0.0
 47
0.0
 48
0.0
 49
0.0
140
0.0
141
0.0
142
1.0
143
1.0
 70
1712
 72
0
 73
0
 74
0
  7

 75
0
147
1.0
148
0.0
149
0.0
100
AcDbLayout
  1
Model
 70
1
 71
0
 10
0.0
 20
0.0
 11
12.0
 21
9.0
 12
0.0
 22
0.0
 32
0.0
 14
0.0
 24
0.0
 34
0.0
 15
0.0
 25
0.0
 35
0.0
146
0.0
 13
0.0
 23
0.0
 33
0.0
 16
1.0
 26
0.0
 36
0.0
 17
0.0
 27
1.0
 37
0.0
 76
0
330
1F
  0
LAYOUT
  5
26
100
AcDbPlotSettings
  1

  2
none_device
  4

  6

 40
0.0
 41
0.0
 42
0.0
 43
0.0
 44
0.0
 45
0.0
 46
0.0
 47
0.0
 48
0.0
 49
0.0
140
0.0
141
0.0
142
1.0
143
1.0
 70
688
 72
0
 73
0
 74
5
  7

 75
16
147
1.0
148
0.0
149
0.0
100
AcDbLayout
  1
Layout2
 70
1
 71
2
 10
0.0
 20
0.0
 11
12.0
 21
9.0
 12
0.0
 22
0.0
 32
0.0
 14
0.0
 24
0.0
 34
0.0
 15
0.0
 25
0.0
 35
0.0
146
0.0
 13
0.0
 23
0.0
 33
0.0
 16
1.0
 26
0.0
 36
0.0
 17
0.0
 27
1.0
 37
0.0
 76
0
330
23
  0
DICTIONARY
  5
4F
100
AcDbDictionary
281
1
  3
DIMASSOC
350
51
  3
HIDETEXT
350
50
  0
DICTIONARYVAR
  5
50
100
DictionaryVariables
280
0
  1
2
  0
DICTIONARYVAR
  5
51
100
DictionaryVariables
280
0
  1
1
  0
ENDSEC
  0
EOF
